<svg xmlns="http://www.w3.org/2000/svg" viewBox="0 0 1024 1024">
  <polygon fill="#f3b700" points="512 256, 256 256, 256 0" />
  <polygon fill="#faa300" points="0 512, 0 768, 256 768" />
  <polygon fill="#e57c04" points="512 1024, 768 1024, 768 768" />
  <polygon fill="#ff6201" points="512 256, 512 768, 1024 768" />
  <polygon fill="#f63e02" points="1024 768, 896 768, 896 896" />
  <polygon fill="#f3b700" points="512 768, 512 256, 1024 256" />
  <polygon fill="#faa300" points="256 0, 384 0, 384 128" />
  <polygon fill="#e57c04" points="1024 768, 1024 256, 512 256" />
  <polygon fill="#ff6201" points="512 0, 512 128, 640 128" />
  <polygon fill="#f63e02" points="768 1024, 640 1024, 640 896" />
  <polygon fill="#f3b700" points="0 768, 0 512, 256 512" />
  <polygon fill="#faa300" points="0 1024, 0 768, 256 768" />
  <polygon fill="#e57c04" points="256 1024, 256 896, 128 896" />
  <polygon fill="#ff6201" points="0 1024, 128 1024, 128 896" />
  <polygon fill="#f63e02" points="1024 512, 1024 256, 768 256" />
  <polygon fill="#f3b700" points="256 768, 256 896, 384 896" />
  <polygon fill="#faa300" points="768 0, 256 0, 256 512" />
  <polygon fill="#e57c04" points="1024 1024, 512 1024, 512 512" />
  <polygon fill="#ff6201" points="1024 256, 1024 128, 896 128" />
  <polygon fill="#f63e02" points="768 1024, 768 896, 896 896" />
  <polygon fill="#f3b700" points="1024 768, 1024 256, 512 256" />
  <polygon fill="#faa300" points="0 768, 256 768, 256 512" />
  <polygon fill="#e57c04" points="1024 1024, 1024 512, 512 512" />
  <polygon fill="#ff6201" points="512 1024, 384 1024, 384 896" />
  <polygon fill="#f63e02" points="512 768, 512 256, 0 256" />
  <polygon fill="#f3b700" points="768 512, 768 1024, 256 1024" />
  <polygon fill="#faa300" points="256 768, 128 768, 128 896" />
  <polygon fill="#e57c04" points="256 1024, 256 768, 512 768" />
  <polygon fill="#ff6201" points="256 768, 0 768, 0 512" />
  <polygon fill="#f63e02" points="256 768, 256 640, 384 640" />
  <polygon fill="#f3b700" points="768 0, 512 0, 512 256" />
  <polygon fill="#faa300" points="256 1024, 256 896, 128 896" />
  <polygon fill="#e57c04" points="1024 256, 512 256, 512 768" />
  <polygon fill="#ff6201" points="512 768, 768 768, 768 1024" />
  <polygon fill="#f63e02" points="512 0, 512 512, 0 512" />
  <polygon fill="#f3b700" points="0 0, 0 512, 512 512" />
  <polygon fill="#faa300" points="0 1024, 0 896, 128 896" />
  <polygon fill="#e57c04" points="512 256, 512 768, 0 768" />
  <polygon fill="#ff6201" points="512 512, 640 512, 640 640" />
  <polygon fill="#f63e02" points="0 1024, 0 512, 512 512" />
  <polygon fill="#f3b700" points="768 0, 768 512, 256 512" />
  <polygon fill="#faa300" points="0 768, 0 1024, 256 1024" />
  <polygon fill="#e57c04" points="256 1024, 256 768, 0 768" />
  <polygon fill="#ff6201" points="0 768, 0 896, 128 896" />
  <polygon fill="#f63e02" points="256 256, 128 256, 128 128" />
  <polygon fill="#f3b700" points="0 256, 0 512, 256 512" />
  <polygon fill="#faa300" points="512 0, 0 0, 0 512" />
  <polygon fill="#e57c04" points="1024 256, 1024 128, 896 128" />
  <polygon fill="#ff6201" points="0 256, 0 384, 128 384" />
  <polygon fill="#f63e02" points="256 0, 768 0, 768 512" />
</svg>