<svg xmlns="http://www.w3.org/2000/svg" viewBox="0 0 439 512">
  <!-- based on https://github.com/ForkAwesome/Fork-Awesome/blob/4fef70f7273ca9692a67e27b79a591f08e9f8b35/src/icons/svg/lemmy.svg, edited for size and consistency -->
  <!-- watch https://github.com/FortAwesome/Font-Awesome/issues/19758 for if an official icon is made -->
  <path d="M 58.03125 111.96875 C 50.035156 112.109375 42.015625 113.695312 34.664062 116.957031 C 25.960938 120.785156 18.28125 126.894531 12.617188 134.539062 C 8.582031 139.960938 5.476562 146.039062 3.285156 152.40625 C 0.546875 160.4375 -0.566406 169.050781 0.273438 177.523438 C 0.996094 185.015625 3.210938 192.328125 6.625 199.011719 C 6.625 199.011719 6.625 199.011719 6.628906 199.011719 C 6.628906 199.011719 6.628906 199.011719 6.628906 199.015625 C 10.539062 206.730469 15.941406 213.617188 22.1875 219.53125 C 26.304688 223.441406 30.777344 226.972656 35.527344 230.078125 C 35.539062 230.085938 35.550781 230.089844 35.5625 230.097656 C 46.382812 236.621094 58.042969 241.882812 70.316406 245.113281 C 71.289062 245.371094 72.269531 245.605469 73.25 245.835938 C 73.058594 252.351562 73.226562 258.894531 73.945312 265.390625 C 73.949219 265.394531 73.949219 265.394531 73.949219 265.398438 C 75.335938 277.3125 78.921875 288.921875 84.199219 299.664062 C 85.554688 302.425781 87.035156 305.128906 88.59375 307.78125 C 78.460938 311.917969 68.324219 316.042969 58.199219 320.207031 C 58.183594 320.214844 58.167969 320.21875 58.15625 320.226562 C 54.058594 322.117188 51.171875 326.234375 50.839844 330.746094 C 50.496094 334.773438 52.144531 338.878906 55.25 341.503906 C 58.347656 344.167969 62.703125 345.257812 66.691406 344.207031 C 68.539062 343.726562 70.148438 342.914062 71.707031 342.3125 C 71.714844 342.308594 71.722656 342.308594 71.730469 342.304688 C 82.53125 337.894531 93.335938 333.484375 104.140625 329.074219 C 110.152344 335.875 116.769531 342.132812 123.832031 347.824219 C 117.113281 356.71875 110.386719 365.609375 103.691406 374.519531 C 103.679688 374.53125 103.671875 374.542969 103.664062 374.554688 C 101.074219 378.300781 100.699219 383.371094 102.769531 387.441406 C 104.605469 391.175781 108.292969 393.886719 112.445312 394.429688 C 116.398438 394.988281 120.558594 393.640625 123.347656 390.726562 C 124.398438 389.652344 125.226562 388.441406 126.015625 387.394531 C 130.660156 381.261719 135.289062 375.121094 139.925781 368.984375 C 139.925781 368.984375 139.925781 368.984375 139.929688 368.984375 C 141.582031 366.796875 143.238281 364.605469 144.890625 362.414062 C 155.894531 368.953125 167.578125 374.375 179.753906 378.363281 C 184.53125 386.234375 191.804688 392.515625 200.257812 396.140625 C 211.503906 401 224.609375 401.359375 236.070312 396.988281 C 243.289062 394.261719 249.785156 389.699219 254.808594 383.847656 L 254.8125 383.847656 C 256.394531 382.003906 257.816406 380.027344 259.085938 377.953125 C 271.105469 373.914062 282.644531 368.5 293.515625 362 C 300.566406 371.328125 307.605469 380.660156 314.679688 389.972656 C 314.6875 389.988281 314.699219 390 314.710938 390.015625 C 317.625 393.515625 322.417969 395.230469 326.894531 394.328125 C 330.8125 393.585938 334.289062 390.96875 336.007812 387.347656 C 337.804688 383.664062 337.71875 379.167969 335.6875 375.578125 C 334.796875 373.996094 333.652344 372.722656 332.726562 371.445312 C 332.722656 371.441406 332.71875 371.433594 332.714844 371.429688 C 326.65625 363.40625 320.59375 355.382812 314.535156 347.359375 C 321.285156 341.898438 327.632812 335.9375 333.445312 329.472656 C 345.214844 334.273438 356.980469 339.085938 368.761719 343.863281 C 368.773438 343.867188 368.789062 343.875 368.804688 343.878906 C 373.09375 345.410156 378.085938 344.453125 381.484375 341.40625 C 384.480469 338.777344 386.144531 334.753906 385.785156 330.761719 C 385.464844 326.746094 383.183594 322.980469 379.710938 320.898438 C 378.105469 319.925781 376.417969 319.402344 374.9375 318.765625 C 374.929688 318.765625 374.925781 318.761719 374.917969 318.761719 C 366.359375 315.265625 357.796875 311.773438 349.238281 308.28125 C 355.296875 298.277344 359.992188 287.40625 362.734375 276.003906 L 362.734375 276 C 364.460938 268.886719 365.339844 261.59375 365.582031 254.304688 C 365.695312 251.46875 365.714844 248.625 365.667969 245.785156 C 377.03125 243.074219 387.941406 238.65625 398.128906 233.003906 C 400.378906 231.757812 402.640625 230.472656 404.820312 229.007812 C 404.824219 229.007812 404.828125 229.003906 404.832031 229 C 413.210938 223.210938 420.828125 216.160156 426.769531 207.796875 C 432.386719 199.921875 436.417969 190.820312 437.964844 181.207031 C 439.554688 171.488281 438.566406 161.414062 435.339844 152.144531 C 433.019531 145.457031 429.660156 139.117188 425.316406 133.507812 C 425.3125 133.503906 425.3125 133.503906 425.3125 133.503906 C 419.765625 126.417969 412.488281 120.6875 404.242188 117.046875 C 396.914062 113.777344 388.921875 112.128906 380.929688 111.988281 L 380.925781 111.988281 C 370.621094 111.761719 360.382812 113.835938 350.796875 117.398438 C 344.078125 119.898438 337.617188 123.097656 331.554688 126.917969 C 331.550781 126.921875 331.546875 126.921875 331.542969 126.925781 C 322.855469 132.515625 315.335938 139.734375 308.867188 147.695312 C 308.867188 147.695312 308.867188 147.695312 308.867188 147.699219 C 308.660156 147.953125 308.457031 148.210938 308.253906 148.46875 C 296.320312 142.238281 283.449219 137.980469 270.332031 135.222656 C 253.3125 131.648438 235.882812 130.476562 218.558594 130.796875 C 203.695312 131.058594 188.808594 132.359375 174.183594 135.214844 C 161.132812 137.769531 148.269531 141.605469 136.171875 147.253906 C 134.558594 148.003906 132.972656 148.808594 131.390625 149.625 C 125.332031 141.808594 118.277344 134.707031 110.179688 128.949219 C 110.179688 128.945312 110.179688 128.945312 110.179688 128.945312 C 104.898438 125.214844 99.179688 122.183594 93.316406 119.582031 C 93.3125 119.578125 93.3125 119.578125 93.3125 119.578125 C 83.84375 115.425781 73.675781 112.660156 63.285156 112.074219 C 63.285156 112.074219 63.285156 112.074219 63.28125 112.074219 C 61.535156 111.976562 59.785156 111.945312 58.035156 111.96875 C 58.035156 111.96875 58.03125 111.96875 58.03125 111.96875 Z M 58.953125 135.703125 C 63.972656 135.691406 69.046875 136.46875 73.929688 137.820312 C 73.929688 137.820312 73.929688 137.820312 73.933594 137.820312 C 76.492188 138.519531 79.035156 139.390625 81.496094 140.367188 C 83.863281 141.316406 86.203125 142.386719 88.460938 143.546875 C 90.46875 144.582031 92.464844 145.6875 94.351562 146.898438 C 94.355469 146.898438 94.355469 146.898438 94.355469 146.898438 C 95.273438 147.484375 96.164062 148.105469 97.058594 148.761719 C 97.835938 149.332031 98.597656 149.921875 99.351562 150.527344 C 103.789062 154.109375 107.792969 158.21875 111.410156 162.648438 C 102.449219 169.914062 94.722656 178.710938 88.804688 188.628906 C 83.1875 198 79.164062 208.277344 76.660156 218.882812 C 76.410156 219.925781 76.195312 220.976562 75.972656 222.027344 C 72.832031 221.1875 69.722656 220.203125 66.675781 219.050781 L 66.667969 219.046875 C 66.148438 218.847656 65.582031 218.632812 65.066406 218.421875 C 65.0625 218.421875 65.0625 218.421875 65.058594 218.421875 C 60.207031 216.496094 55.507812 214.167969 50.949219 211.59375 C 49.199219 210.59375 47.488281 209.601562 45.941406 208.441406 C 45.9375 208.441406 45.933594 208.4375 45.929688 208.433594 C 44.28125 207.230469 42.675781 205.980469 41.132812 204.664062 C 40.539062 204.152344 39.914062 203.597656 39.3125 203.050781 L 39.308594 203.046875 C 38.511719 202.3125 37.6875 201.519531 36.914062 200.726562 C 36.914062 200.726562 36.914062 200.722656 36.910156 200.722656 C 32.621094 196.339844 28.964844 191.300781 26.601562 185.6875 C 26.601562 185.6875 26.601562 185.683594 26.601562 185.683594 C 25.304688 182.621094 24.402344 179.390625 23.972656 176.101562 C 23.914062 175.65625 23.859375 175.144531 23.816406 174.675781 C 23.816406 174.671875 23.816406 174.671875 23.816406 174.667969 C 23.773438 174.203125 23.742188 173.664062 23.71875 173.203125 C 23.679688 172.203125 23.679688 171.199219 23.71875 170.203125 C 23.734375 169.945312 23.746094 169.632812 23.765625 169.382812 C 23.765625 169.382812 23.765625 169.378906 23.765625 169.375 C 23.863281 167.976562 24.050781 166.578125 24.320312 165.191406 C 24.394531 164.816406 24.484375 164.390625 24.570312 164.015625 C 24.570312 164.015625 24.570312 164.015625 24.570312 164.011719 C 25.269531 160.972656 26.363281 158.023438 27.742188 155.207031 C 27.851562 154.996094 27.984375 154.722656 28.078125 154.542969 C 28.328125 154.058594 28.578125 153.582031 28.824219 153.140625 C 28.828125 153.136719 28.828125 153.136719 28.828125 153.136719 C 30.566406 149.988281 32.671875 147.046875 35.222656 144.570312 C 35.222656 144.570312 35.226562 144.570312 35.226562 144.566406 C 38.25 141.613281 41.933594 139.328125 45.917969 137.90625 C 45.917969 137.902344 45.921875 137.902344 45.921875 137.902344 C 46.480469 137.703125 47.042969 137.515625 47.613281 137.339844 L 47.621094 137.339844 C 47.625 137.339844 47.625 137.339844 47.625 137.339844 C 47.882812 137.261719 48.199219 137.167969 48.457031 137.097656 C 48.460938 137.097656 48.464844 137.097656 48.46875 137.09375 C 49.285156 136.867188 50.171875 136.660156 50.984375 136.5 C 51.488281 136.398438 51.949219 136.3125 52.453125 136.234375 C 52.457031 136.234375 52.457031 136.234375 52.457031 136.234375 C 54.292969 135.9375 56.1875 135.773438 58.039062 135.71875 C 58.34375 135.710938 58.648438 135.703125 58.957031 135.699219 Z M 379.324219 135.703125 C 379.324219 135.703125 379.328125 135.703125 379.328125 135.703125 C 380.035156 135.707031 380.738281 135.71875 381.433594 135.746094 C 381.589844 135.753906 381.796875 135.765625 381.941406 135.773438 C 383.027344 135.835938 384.105469 135.933594 385.160156 136.074219 C 386.492188 136.25 387.835938 136.496094 389.121094 136.804688 C 389.121094 136.804688 389.121094 136.808594 389.121094 136.808594 C 391.316406 137.335938 393.460938 138.066406 395.492188 139.023438 C 395.800781 139.171875 396.167969 139.347656 396.480469 139.511719 C 396.480469 139.511719 396.484375 139.511719 396.484375 139.515625 C 400.636719 141.640625 404.226562 144.832031 407.003906 148.605469 C 407.003906 148.605469 407.003906 148.609375 407.003906 148.609375 C 407.285156 148.984375 407.539062 149.351562 407.816406 149.757812 C 409.902344 152.839844 411.601562 156.1875 412.875 159.691406 C 414.15625 163.253906 414.921875 167.003906 415.019531 170.769531 C 415.027344 171.214844 415.035156 171.722656 415.027344 172.183594 C 415.019531 172.515625 415.011719 172.800781 415 173.125 C 415 173.128906 415 173.128906 415 173.132812 C 414.984375 173.402344 414.972656 173.707031 414.957031 173.9375 C 414.957031 173.941406 414.957031 173.945312 414.957031 173.953125 C 414.785156 176.464844 414.339844 178.964844 413.640625 181.390625 C 412.742188 184.503906 411.410156 187.558594 409.765625 190.394531 C 409.4375 190.960938 409.101562 191.515625 408.761719 192.050781 C 404.882812 198.132812 399.644531 203.304688 393.835938 207.660156 C 392.429688 208.707031 391.042969 209.71875 389.589844 210.546875 C 389.585938 210.550781 389.582031 210.550781 389.582031 210.554688 C 385.242188 213.085938 380.78125 215.402344 376.179688 217.375 C 372.019531 219.164062 367.757812 220.671875 363.390625 221.875 C 363.335938 221.890625 363.277344 221.90625 363.21875 221.921875 C 360.984375 210.582031 357.125 199.519531 351.4375 189.417969 L 351.4375 189.414062 C 345.496094 178.828125 337.5625 169.378906 328.203125 161.644531 C 331.746094 157.414062 335.648438 153.484375 339.960938 150.070312 L 339.960938 150.066406 C 342.15625 148.335938 344.496094 146.71875 346.929688 145.347656 C 346.933594 145.347656 346.933594 145.34375 346.933594 145.34375 C 351.160156 142.9375 355.589844 140.882812 360.167969 139.265625 L 360.171875 139.265625 C 360.171875 139.265625 360.175781 139.261719 360.175781 139.261719 C 360.519531 139.144531 360.914062 139.007812 361.265625 138.890625 C 361.902344 138.679688 362.503906 138.488281 363.152344 138.289062 C 363.40625 138.214844 363.734375 138.117188 364.023438 138.03125 L 364.015625 138.035156 C 365.871094 137.5 367.753906 137.042969 369.628906 136.6875 C 369.628906 136.6875 369.632812 136.6875 369.632812 136.6875 C 370.828125 136.457031 372.082031 136.257812 373.285156 136.105469 C 374.671875 135.933594 376.078125 135.816406 377.449219 135.753906 C 378.0625 135.726562 378.6875 135.714844 379.324219 135.703125 Z M 223.84375 154.464844 L 223.839844 154.464844 L 223.851562 154.464844 C 228.164062 154.496094 232.46875 154.566406 236.75 154.808594 C 236.75 154.808594 236.753906 154.808594 236.753906 154.808594 C 240.785156 155.023438 244.847656 155.351562 248.855469 155.796875 C 253.070312 156.265625 257.265625 156.875 261.433594 157.640625 C 266.5 158.574219 271.558594 159.753906 276.507812 161.210938 C 281.457031 162.664062 286.359375 164.421875 291.089844 166.503906 C 294.734375 168.113281 298.320312 169.929688 301.757812 171.964844 C 303.230469 172.832031 304.671875 173.742188 306.101562 174.699219 C 311.304688 178.183594 316.171875 182.25 320.398438 186.871094 C 320.398438 186.875 320.402344 186.875 320.402344 186.875 C 321.097656 187.628906 321.777344 188.398438 322.433594 189.164062 C 322.433594 189.164062 322.4375 189.167969 322.4375 189.167969 C 324.695312 191.785156 326.785156 194.539062 328.621094 197.449219 C 328.621094 197.449219 328.621094 197.449219 328.625 197.449219 C 329.792969 199.289062 330.886719 201.175781 331.921875 203.101562 C 331.921875 203.101562 331.925781 203.105469 331.925781 203.105469 C 332.101562 203.441406 332.300781 203.824219 332.472656 204.164062 C 332.476562 204.164062 332.476562 204.164062 332.476562 204.167969 C 333.738281 206.632812 334.855469 209.171875 335.839844 211.765625 C 336.03125 212.285156 336.242188 212.84375 336.425781 213.363281 C 336.429688 213.367188 336.429688 213.371094 336.429688 213.371094 C 337.234375 215.59375 337.941406 217.855469 338.554688 220.140625 C 338.683594 220.636719 338.828125 221.167969 338.945312 221.648438 C 338.945312 221.652344 338.949219 221.65625 338.949219 221.65625 C 340.488281 227.828125 341.386719 234.214844 341.785156 240.601562 C 341.835938 241.417969 341.867188 242.25 341.898438 243.09375 C 341.898438 243.097656 341.898438 243.101562 341.898438 243.109375 C 341.914062 243.675781 341.933594 244.28125 341.941406 244.839844 C 341.941406 244.84375 341.941406 244.84375 341.941406 244.847656 C 341.988281 247.386719 341.949219 249.9375 341.882812 252.496094 C 341.84375 253.769531 341.78125 255.109375 341.707031 256.378906 C 341.535156 259.183594 341.257812 261.972656 340.800781 264.714844 C 340.734375 265.089844 340.664062 265.515625 340.597656 265.894531 C 340.597656 265.894531 340.597656 265.898438 340.597656 265.898438 C 340.179688 268.222656 339.660156 270.523438 339.039062 272.800781 C 338.902344 273.285156 338.757812 273.8125 338.613281 274.292969 C 338.613281 274.296875 338.613281 274.296875 338.613281 274.300781 C 337.789062 277.117188 336.808594 279.890625 335.699219 282.613281 C 335.550781 282.96875 335.382812 283.382812 335.242188 283.714844 C 335.242188 283.714844 335.242188 283.71875 335.242188 283.71875 C 333.199219 288.535156 330.734375 293.175781 327.945312 297.617188 C 326.894531 299.289062 325.773438 300.972656 324.628906 302.582031 C 322.800781 305.167969 320.859375 307.675781 318.828125 310.113281 C 316.265625 313.179688 313.53125 316.15625 310.683594 318.988281 C 307.4375 322.222656 303.96875 325.34375 300.394531 328.273438 C 295.472656 332.308594 290.3125 336.019531 284.933594 339.421875 C 282.015625 341.265625 279.003906 343.035156 275.976562 344.683594 C 272.476562 346.585938 268.902344 348.34375 265.273438 349.96875 C 264.371094 342.019531 261.34375 334.316406 256.445312 327.96875 L 256.445312 327.964844 C 251.714844 321.8125 245.335938 316.964844 238.15625 314.027344 L 238.152344 314.027344 C 230.359375 310.8125 221.757812 309.804688 213.433594 310.742188 C 213.433594 310.742188 213.433594 310.742188 213.429688 310.742188 C 207.328125 311.433594 201.332031 313.246094 195.921875 316.203125 L 195.917969 316.203125 C 190.347656 319.234375 185.421875 323.457031 181.636719 328.558594 C 177.75 333.777344 175.054688 339.882812 173.871094 346.289062 C 173.617188 347.640625 173.449219 349.007812 173.324219 350.378906 C 165.542969 346.933594 158.039062 342.867188 150.914062 338.214844 C 144.253906 333.855469 137.921875 328.992188 132.042969 323.636719 C 128.226562 320.15625 124.574219 316.445312 121.183594 312.542969 C 115.144531 305.59375 109.832031 297.921875 105.746094 289.667969 C 105.199219 288.570312 104.683594 287.472656 104.179688 286.34375 C 103.265625 284.296875 102.398438 282.15625 101.640625 280.019531 C 100.328125 276.347656 99.277344 272.582031 98.503906 268.761719 L 98.503906 268.757812 C 98.445312 268.449219 98.363281 268.039062 98.304688 267.726562 C 98.304688 267.726562 98.304688 267.722656 98.304688 267.722656 C 97.644531 264.191406 97.242188 260.609375 97.082031 257.015625 C 97.082031 257.015625 97.082031 257.015625 97.082031 257.011719 C 96.894531 253.019531 96.863281 248.992188 96.992188 244.984375 L 96.992188 244.980469 C 97.023438 244.179688 97.0625 243.324219 97.105469 242.515625 C 97.300781 239.078125 97.640625 235.675781 98.152344 232.273438 C 98.375 230.785156 98.625 229.320312 98.917969 227.839844 C 99.347656 225.632812 99.859375 223.398438 100.457031 221.214844 C 100.675781 220.421875 100.90625 219.628906 101.136719 218.871094 C 101.726562 216.933594 102.398438 214.996094 103.113281 213.121094 L 103.113281 213.117188 C 103.929688 210.992188 104.8125 208.921875 105.808594 206.882812 L 105.808594 206.878906 C 107.28125 203.875 108.976562 200.933594 110.828125 198.117188 C 111.390625 197.261719 112.003906 196.382812 112.589844 195.5625 C 114.261719 193.242188 116.125 191.050781 118.0625 188.90625 L 118.066406 188.902344 C 121.273438 185.390625 124.785156 182.160156 128.574219 179.304688 C 128.574219 179.300781 128.578125 179.300781 128.578125 179.300781 C 135.46875 174.0625 143.140625 169.878906 151.167969 166.582031 C 154.363281 165.273438 157.648438 164.082031 160.957031 163.023438 C 164.222656 161.980469 167.578125 161.042969 170.945312 160.21875 C 174.882812 159.25 178.914062 158.425781 182.917969 157.734375 C 188.070312 156.84375 193.269531 156.167969 198.464844 155.660156 C 203.671875 155.15625 208.882812 154.828125 214.121094 154.644531 C 217.34375 154.53125 220.59375 154.484375 223.84375 154.464844 Z M 153.960938 265.453125 L 153.960938 265.457031 C 147.359375 265.589844 140.886719 268.453125 136.382812 273.292969 L 136.378906 273.292969 C 132.269531 277.648438 129.796875 283.492188 129.609375 289.492188 C 129.390625 295.433594 131.339844 301.421875 135.105469 306.046875 C 139 310.894531 144.730469 314.226562 150.917969 315.089844 C 156.957031 315.976562 163.292969 314.585938 168.363281 311.152344 C 173.492188 307.714844 177.300781 302.359375 178.734375 296.328125 C 180.207031 290.300781 179.371094 283.746094 176.324219 278.3125 C 173.335938 272.90625 168.308594 268.675781 162.417969 266.742188 L 162.417969 266.738281 C 159.695312 265.832031 156.824219 265.398438 153.964844 265.453125 C 153.960938 265.453125 153.960938 265.453125 153.960938 265.453125 Z M 282.660156 265.609375 C 278.421875 265.671875 275.515625 267.238281 275.273438 267.371094 C 269.96875 269.472656 265.4375 273.429688 262.703125 278.449219 C 262.703125 278.449219 262.703125 278.453125 262.703125 278.453125 C 262.703125 278.453125 262.703125 278.453125 262.699219 278.453125 C 260.074219 283.21875 259.066406 288.839844 259.929688 294.222656 C 260.75 299.5 263.300781 304.488281 267.167969 308.195312 C 271.257812 312.164062 276.726562 314.675781 282.429688 315.09375 C 288.246094 315.550781 294.203125 313.914062 298.917969 310.445312 C 304.105469 306.675781 307.753906 300.867188 308.777344 294.515625 C 309.824219 288.324219 308.449219 281.769531 304.902344 276.5625 C 301.375 271.316406 295.808594 267.496094 289.601562 266.1875 C 287.28125 265.6875 284.941406 265.582031 282.660156 265.613281 C 282.660156 265.613281 282.660156 265.613281 282.65625 265.613281 Z M 219.347656 334.148438 C 219.996094 334.15625 220.65625 334.171875 221.261719 334.203125 C 225.128906 334.394531 228.980469 335.261719 232.3125 337.101562 C 232.316406 337.101562 232.316406 337.101562 232.316406 337.101562 C 232.835938 337.386719 233.339844 337.703125 233.832031 338.042969 C 233.996094 338.15625 234.230469 338.324219 234.410156 338.457031 C 234.410156 338.457031 234.414062 338.460938 234.414062 338.460938 C 236.917969 340.328125 238.894531 342.902344 240.09375 345.789062 C 240.09375 345.792969 240.09375 345.792969 240.09375 345.796875 C 240.398438 346.515625 240.65625 347.253906 240.878906 348.007812 C 240.878906 348.007812 240.878906 348.011719 240.882812 348.011719 C 240.964844 348.296875 241.058594 348.644531 241.132812 348.9375 C 241.226562 349.328125 241.328125 349.785156 241.40625 350.195312 C 241.40625 350.199219 241.40625 350.199219 241.40625 350.199219 C 241.527344 350.835938 241.628906 351.53125 241.691406 352.132812 C 241.691406 352.136719 241.691406 352.136719 241.691406 352.136719 C 241.785156 353.003906 241.839844 353.886719 241.847656 354.738281 C 241.847656 354.738281 241.847656 354.742188 241.847656 354.746094 C 241.882812 356.910156 241.570312 359.078125 240.902344 361.128906 C 240.8125 361.410156 240.695312 361.757812 240.585938 362.042969 C 240.585938 362.042969 240.582031 362.046875 240.582031 362.046875 C 238.828125 366.765625 235.289062 370.804688 230.898438 373.292969 C 230.898438 373.292969 230.894531 373.296875 230.894531 373.296875 C 229.347656 374.183594 227.683594 374.871094 225.957031 375.371094 C 225.820312 375.40625 225.632812 375.460938 225.5 375.496094 C 223.835938 375.9375 222.121094 376.199219 220.398438 376.269531 C 220.066406 376.28125 219.667969 376.292969 219.324219 376.292969 C 219.324219 376.292969 219.320312 376.292969 219.320312 376.292969 C 218.867188 376.296875 218.429688 376.289062 217.980469 376.269531 L 217.976562 376.269531 C 217.808594 376.261719 217.59375 376.25 217.4375 376.242188 C 216.398438 376.175781 215.359375 376.058594 214.328125 375.894531 C 214.171875 375.867188 213.984375 375.835938 213.886719 375.820312 C 213.882812 375.816406 213.878906 375.816406 213.875 375.816406 C 212.828125 375.625 211.828125 375.382812 210.804688 375.058594 C 207.863281 374.128906 205.046875 372.554688 202.867188 370.398438 C 202.863281 370.394531 202.863281 370.394531 202.863281 370.394531 C 201.960938 369.511719 201.125 368.480469 200.441406 367.445312 C 200.152344 367.007812 199.902344 366.59375 199.644531 366.128906 C 199.644531 366.125 199.644531 366.125 199.644531 366.125 C 199.25 365.414062 198.894531 364.632812 198.597656 363.890625 L 198.59375 363.890625 C 197.539062 361.238281 197.027344 358.363281 196.886719 355.460938 C 196.882812 355.324219 196.875 355.128906 196.871094 354.996094 C 196.855469 354.394531 196.863281 353.789062 196.886719 353.179688 C 196.886719 353.179688 196.886719 353.175781 196.886719 353.175781 C 196.894531 353.035156 196.902344 352.84375 196.910156 352.707031 L 196.910156 352.703125 C 196.996094 351.269531 197.21875 349.800781 197.570312 348.4375 C 197.570312 348.4375 197.574219 348.4375 197.574219 348.433594 C 197.828125 347.457031 198.164062 346.492188 198.566406 345.554688 C 198.675781 345.300781 198.824219 344.980469 198.957031 344.714844 C 198.957031 344.714844 198.957031 344.710938 198.957031 344.710938 C 199.523438 343.566406 200.246094 342.445312 201.035156 341.472656 C 201.484375 340.921875 201.964844 340.402344 202.476562 339.914062 L 202.476562 339.910156 C 202.480469 339.910156 202.480469 339.910156 202.480469 339.910156 C 202.664062 339.738281 202.90625 339.515625 203.109375 339.34375 C 203.109375 339.34375 203.113281 339.339844 203.113281 339.339844 C 204.257812 338.34375 205.539062 337.5 206.902344 336.800781 C 207.03125 336.738281 207.195312 336.65625 207.316406 336.597656 L 207.320312 336.597656 C 210.410156 335.121094 213.863281 334.398438 217.335938 334.207031 C 218.007812 334.171875 218.675781 334.15625 219.347656 334.148438 Z M 219.347656 334.148438 "/>
</svg>