<svg viewBox="0 0 48 48" xmlns="http://www.w3.org/2000/svg">
  <rect y="1" width="46" height="46" fill="#333333" x="1" rx="4" ry="4"></rect>
  <ellipse cx="24" cy="24" rx="20" ry="20" fill="#EF7B0B"></ellipse>
  <ellipse cx="24" cy="26" rx="18" ry="18" fill="#F69537"></ellipse>
  <!-- <a href="https://iconscout.com/icons/temple" target="_blank">Free Temple  Icon</a> by <a href="https://iconscout.com/contributors/healthicons">Daniel Burka</a> on <a href="https://iconscout.com">IconScout</a> -->
  <path fill="#333333" d="M 15 9.762 C 15 13.334 18 13.048 18 13.048 L 18 17.048 C 18 17.048 14.8 24.048 12 20.937 C 12 24.048 14.8 24.048 14.8 24.048 L 16 24.048 L 16 28.048 C 16 28.048 13.6 35.048 10 31.937 C 10 33.608 11.039 34.381 12 34.739 L 12 43.048 L 38 43.048 L 38 34.739 C 38.962 34.381 40 33.608 40 31.937 C 37.251 34.312 34.939 30.792 34 28.995 L 34 24.048 L 35.2 24.048 C 35.2 24.048 38 24.048 38 20.937 C 35.728 23.461 32.962 19.329 32 17.68 L 32 13.048 C 32 13.048 35 13.334 35 9.762 C 31 14.048 25 3.048 25 3.048 C 25 3.048 19 14.048 15 9.762 Z M 14 41.048 L 14 35.048 L 16 35.048 L 16 41.048 L 14 41.048 Z M 18 41.048 L 20 41.048 L 20 39.048 C 20 37.943 20.895 37.048 22 37.048 L 28 37.048 C 29.105 37.048 30 37.943 30 39.048 L 30 41.048 L 32 41.048 L 32 35.048 L 18 35.048 L 18 41.048 Z M 34 35.048 L 34 41.048 L 36 41.048 L 36 35.048 L 34 35.048 Z M 30 13.048 L 30 17.048 L 28 17.048 L 28 16.048 C 28 15.496 27.552 15.048 27 15.048 C 26.448 15.048 26 15.496 26 16.048 L 26 17.048 L 24 17.048 L 24 16.048 C 24 15.496 23.552 15.048 23 15.048 C 22.448 15.048 22 15.496 22 16.048 L 22 17.048 L 20 17.048 L 20 13.048 L 30 13.048 Z M 18 28.048 L 18 24.048 L 32 24.048 L 32 28.048 L 30 28.048 L 30 27.048 C 30 26.496 29.552 26.048 29 26.048 C 28.448 26.048 28 26.496 28 27.048 L 28 28.048 L 26 28.048 L 26 27.048 C 26 26.496 25.552 26.048 25 26.048 C 24.448 26.048 24 26.496 24 27.048 L 24 28.048 L 22 28.048 L 22 27.048 C 22 26.496 21.552 26.048 21 26.048 C 20.448 26.048 20 26.496 20 27.048 L 20 28.048 L 18 28.048 Z" fill-rule="evenodd"></path>
  <path fill="#ffffff" d="M 14 10.762 C 14 14.334 17 14.048 17 14.048 L 17 18.048 C 17 18.048 13.8 25.048 11 21.937 C 11 25.048 13.8 25.048 13.8 25.048 L 15 25.048 L 15 29.048 C 15 29.048 12.6 36.048 9 32.937 C 9 34.608 10.039 35.381 11 35.739 L 11 44.048 L 37 44.048 L 37 35.739 C 37.962 35.381 39 34.608 39 32.937 C 36.251 35.312 33.939 31.792 33 29.995 L 33 25.048 L 34.2 25.048 C 34.2 25.048 37 25.048 37 21.937 C 34.728 24.461 31.962 20.329 31 18.68 L 31 14.048 C 31 14.048 34 14.334 34 10.762 C 30 15.048 24 4.048 24 4.048 C 24 4.048 18 15.048 14 10.762 Z M 13 42.048 L 13 36.048 L 15 36.048 L 15 42.048 L 13 42.048 Z M 17 42.048 L 19 42.048 L 19 40.048 C 19 38.943 19.895 38.048 21 38.048 L 27 38.048 C 28.105 38.048 29 38.943 29 40.048 L 29 42.048 L 31 42.048 L 31 36.048 L 17 36.048 L 17 42.048 Z M 33 36.048 L 33 42.048 L 35 42.048 L 35 36.048 L 33 36.048 Z M 29 14.048 L 29 18.048 L 27 18.048 L 27 17.048 C 27 16.496 26.552 16.048 26 16.048 C 25.448 16.048 25 16.496 25 17.048 L 25 18.048 L 23 18.048 L 23 17.048 C 23 16.496 22.552 16.048 22 16.048 C 21.448 16.048 21 16.496 21 17.048 L 21 18.048 L 19 18.048 L 19 14.048 L 29 14.048 Z M 17 29.048 L 17 25.048 L 31 25.048 L 31 29.048 L 29 29.048 L 29 28.048 C 29 27.496 28.552 27.048 28 27.048 C 27.448 27.048 27 27.496 27 28.048 L 27 29.048 L 25 29.048 L 25 28.048 C 25 27.496 24.552 27.048 24 27.048 C 23.448 27.048 23 27.496 23 28.048 L 23 29.048 L 21 29.048 L 21 28.048 C 21 27.496 20.552 27.048 20 27.048 C 19.448 27.048 19 27.496 19 28.048 L 19 29.048 L 17 29.048 Z" fill-rule="evenodd"></path>
</svg>