<svg xmlns="http://www.w3.org/2000/svg" viewBox="0 0 1024 1024"><polygon fill="#EF7B0B88" points="0 0, 64 64, 0 128" /><polygon fill="#F6953788" points="0 256, 64 320, 0 384" /><polygon fill="#EF7B0B88" points="0 512, 64 576, 0 640" /><polygon fill="#F6953788" points="0 640, 64 704, 0 768" /><polygon fill="#00567A88" points="0 768, 64 832, 0 896" /><polygon fill="#EF7B0B88" points="0 896, 64 960, 0 1024" /><polygon fill="#3798F688" points="0 1024, 64 1088, 0 1152" /><polygon fill="#F6953788" points="0 -64, -64 0, 0 64" /><polygon fill="#EF7B0B88" points="0 64, -64 128, 0 192" /><polygon fill="#3798F688" points="0 192, -64 256, 0 320" /><polygon fill="#F6953788" points="0 448, -64 512, 0 576" /><polygon fill="#EF7B0B88" points="0 576, -64 640, 0 704" /><polygon fill="#EF7B0B88" points="0 704, -64 768, 0 832" /><polygon fill="#3798F688" points="0 832, -64 896, 0 960" /><polygon fill="#F6953788" points="0 960, -64 1024, 0 1088" /><polygon fill="#00567A88" points="64 0, 128 64, 64 128" /><polygon fill="#F6953788" points="64 128, 128 192, 64 256" /><polygon fill="#EF7B0B88" points="64 256, 128 320, 64 384" /><polygon fill="#F6953788" points="64 384, 128 448, 64 512" /><polygon fill="#F6953788" points="64 512, 128 576, 64 640" /><polygon fill="#3798F688" points="64 640, 128 704, 64 768" /><polygon fill="#EF7B0B88" points="64 768, 128 832, 64 896" /><polygon fill="#3798F688" points="64 896, 128 960, 64 1024" /><polygon fill="#EF7B0B88" points="64 1024, 128 1088, 64 1152" /><polygon fill="#F6953788" points="64 64, 0 128, 64 192" /><polygon fill="#00567A88" points="64 192, 0 256, 64 320" /><polygon fill="#F6953788" points="64 320, 0 384, 64 448" /><polygon fill="#00567A88" points="64 448, 0 512, 64 576" /><polygon fill="#3798F688" points="64 576, 0 640, 64 704" /><polygon fill="#00567A88" points="64 704, 0 768, 64 832" /><polygon fill="#EF7B0B88" points="64 832, 0 896, 64 960" /><polygon fill="#F6953788" points="64 960, 0 1024, 64 1088" /><polygon fill="#00567A88" points="128 0, 192 64, 128 128" /><polygon fill="#F6953788" points="128 128, 192 192, 128 256" /><polygon fill="#F6953788" points="128 256, 192 320, 128 384" /><polygon fill="#F6953788" points="128 384, 192 448, 128 512" /><polygon fill="#F6953788" points="128 512, 192 576, 128 640" /><polygon fill="#3798F688" points="128 640, 192 704, 128 768" /><polygon fill="#F6953788" points="128 768, 192 832, 128 896" /><polygon fill="#EF7B0B88" points="128 896, 192 960, 128 1024" /><polygon fill="#F6953788" points="128 1024, 192 1088, 128 1152" /><polygon fill="#3798F688" points="128 -64, 64 0, 128 64" /><polygon fill="#3798F688" points="128 64, 64 128, 128 192" /><polygon fill="#F6953788" points="128 192, 64 256, 128 320" /><polygon fill="#EF7B0B88" points="128 320, 64 384, 128 448" /><polygon fill="#F6953788" points="128 448, 64 512, 128 576" /><polygon fill="#F6953788" points="128 576, 64 640, 128 704" /><polygon fill="#F6953788" points="128 704, 64 768, 128 832" /><polygon fill="#00567A88" points="128 832, 64 896, 128 960" /><polygon fill="#EF7B0B88" points="128 960, 64 1024, 128 1088" /><polygon fill="#EF7B0B88" points="192 0, 256 64, 192 128" /><polygon fill="#EF7B0B88" points="192 128, 256 192, 192 256" /><polygon fill="#EF7B0B88" points="192 256, 256 320, 192 384" /><polygon fill="#F6953788" points="192 384, 256 448, 192 512" /><polygon fill="#3798F688" points="192 512, 256 576, 192 640" /><polygon fill="#EF7B0B88" points="192 640, 256 704, 192 768" /><polygon fill="#F6953788" points="192 768, 256 832, 192 896" /><polygon fill="#F6953788" points="192 896, 256 960, 192 1024" /><polygon fill="#EF7B0B88" points="192 1024, 256 1088, 192 1152" /><polygon fill="#00567A88" points="192 -64, 128 0, 192 64" /><polygon fill="#EF7B0B88" points="192 64, 128 128, 192 192" /><polygon fill="#00567A88" points="192 192, 128 256, 192 320" /><polygon fill="#EF7B0B88" points="192 320, 128 384, 192 448" /><polygon fill="#00567A88" points="192 448, 128 512, 192 576" /><polygon fill="#00567A88" points="192 576, 128 640, 192 704" /><polygon fill="#00567A88" points="192 704, 128 768, 192 832" /><polygon fill="#00567A88" points="192 832, 128 896, 192 960" /><polygon fill="#3798F688" points="192 960, 128 1024, 192 1088" /><polygon fill="#00567A88" points="256 0, 320 64, 256 128" /><polygon fill="#3798F688" points="256 128, 320 192, 256 256" /><polygon fill="#00567A88" points="256 256, 320 320, 256 384" /><polygon fill="#00567A88" points="256 384, 320 448, 256 512" /><polygon fill="#3798F688" points="256 512, 320 576, 256 640" /><polygon fill="#F6953788" points="256 640, 320 704, 256 768" /><polygon fill="#EF7B0B88" points="256 768, 320 832, 256 896" /><polygon fill="#3798F688" points="256 896, 320 960, 256 1024" /><polygon fill="#00567A88" points="256 1024, 320 1088, 256 1152" /><polygon fill="#EF7B0B88" points="256 -64, 192 0, 256 64" /><polygon fill="#EF7B0B88" points="256 64, 192 128, 256 192" /><polygon fill="#EF7B0B88" points="256 192, 192 256, 256 320" /><polygon fill="#00567A88" points="256 320, 192 384, 256 448" /><polygon fill="#00567A88" points="256 448, 192 512, 256 576" /><polygon fill="#F6953788" points="256 576, 192 640, 256 704" /><polygon fill="#F6953788" points="256 704, 192 768, 256 832" /><polygon fill="#00567A88" points="256 832, 192 896, 256 960" /><polygon fill="#3798F688" points="256 960, 192 1024, 256 1088" /><polygon fill="#F6953788" points="320 0, 384 64, 320 128" /><polygon fill="#EF7B0B88" points="320 128, 384 192, 320 256" /><polygon fill="#F6953788" points="320 256, 384 320, 320 384" /><polygon fill="#00567A88" points="320 384, 384 448, 320 512" /><polygon fill="#00567A88" points="320 512, 384 576, 320 640" /><polygon fill="#EF7B0B88" points="320 640, 384 704, 320 768" /><polygon fill="#EF7B0B88" points="320 896, 384 960, 320 1024" /><polygon fill="#F6953788" points="320 1024, 384 1088, 320 1152" /><polygon fill="#00567A88" points="320 -64, 256 0, 320 64" /><polygon fill="#00567A88" points="320 64, 256 128, 320 192" /><polygon fill="#3798F688" points="320 192, 256 256, 320 320" /><polygon fill="#F6953788" points="320 320, 256 384, 320 448" /><polygon fill="#EF7B0B88" points="320 448, 256 512, 320 576" /><polygon fill="#F6953788" points="320 576, 256 640, 320 704" /><polygon fill="#3798F688" points="320 704, 256 768, 320 832" /><polygon fill="#F6953788" points="320 832, 256 896, 320 960" /><polygon fill="#F6953788" points="320 960, 256 1024, 320 1088" /><polygon fill="#00567A88" points="384 0, 448 64, 384 128" /><polygon fill="#3798F688" points="384 128, 448 192, 384 256" /><polygon fill="#3798F688" points="384 256, 448 320, 384 384" /><polygon fill="#EF7B0B88" points="384 384, 448 448, 384 512" /><polygon fill="#3798F688" points="384 512, 448 576, 384 640" /><polygon fill="#EF7B0B88" points="384 768, 448 832, 384 896" /><polygon fill="#00567A88" points="384 896, 448 960, 384 1024" /><polygon fill="#00567A88" points="384 1024, 448 1088, 384 1152" /><polygon fill="#EF7B0B88" points="384 64, 320 128, 384 192" /><polygon fill="#3798F688" points="384 192, 320 256, 384 320" /><polygon fill="#3798F688" points="384 320, 320 384, 384 448" /><polygon fill="#00567A88" points="384 448, 320 512, 384 576" /><polygon fill="#3798F688" points="384 576, 320 640, 384 704" /><polygon fill="#00567A88" points="384 704, 320 768, 384 832" /><polygon fill="#3798F688" points="384 832, 320 896, 384 960" /><polygon fill="#F6953788" points="384 960, 320 1024, 384 1088" /><polygon fill="#EF7B0B88" points="448 0, 512 64, 448 128" /><polygon fill="#00567A88" points="448 128, 512 192, 448 256" /><polygon fill="#F6953788" points="448 256, 512 320, 448 384" /><polygon fill="#00567A88" points="448 384, 512 448, 448 512" /><polygon fill="#EF7B0B88" points="448 512, 512 576, 448 640" /><polygon fill="#3798F688" points="448 640, 512 704, 448 768" /><polygon fill="#3798F688" points="448 768, 512 832, 448 896" /><polygon fill="#00567A88" points="448 896, 512 960, 448 1024" /><polygon fill="#3798F688" points="448 1024, 512 1088, 448 1152" /><polygon fill="#00567A88" points="448 -64, 384 0, 448 64" /><polygon fill="#3798F688" points="448 64, 384 128, 448 192" /><polygon fill="#00567A88" points="448 192, 384 256, 448 320" /><polygon fill="#F6953788" points="448 320, 384 384, 448 448" /><polygon fill="#00567A88" points="448 448, 384 512, 448 576" /><polygon fill="#EF7B0B88" points="448 576, 384 640, 448 704" /><polygon fill="#00567A88" points="448 704, 384 768, 448 832" /><polygon fill="#3798F688" points="448 832, 384 896, 448 960" /><polygon fill="#3798F688" points="448 960, 384 1024, 448 1088" /><polygon fill="#F6953788" points="512 0, 576 64, 512 128" /><polygon fill="#3798F688" points="512 128, 576 192, 512 256" /><polygon fill="#3798F688" points="512 256, 576 320, 512 384" /><polygon fill="#3798F688" points="512 384, 576 448, 512 512" /><polygon fill="#F6953788" points="512 512, 576 576, 512 640" /><polygon fill="#3798F688" points="512 640, 576 704, 512 768" /><polygon fill="#3798F688" points="512 768, 576 832, 512 896" /><polygon fill="#3798F688" points="512 896, 576 960, 512 1024" /><polygon fill="#3798F688" points="512 1024, 576 1088, 512 1152" /><polygon fill="#EF7B0B88" points="512 -64, 448 0, 512 64" /><polygon fill="#EF7B0B88" points="512 64, 448 128, 512 192" /><polygon fill="#F6953788" points="512 192, 448 256, 512 320" /><polygon fill="#3798F688" points="512 320, 448 384, 512 448" /><polygon fill="#F6953788" points="512 448, 448 512, 512 576" /><polygon fill="#00567A88" points="512 576, 448 640, 512 704" /><polygon fill="#3798F688" points="512 704, 448 768, 512 832" /><polygon fill="#00567A88" points="512 832, 448 896, 512 960" /><polygon fill="#3798F688" points="512 960, 448 1024, 512 1088" /><polygon fill="#F6953788" points="576 0, 640 64, 576 128" /><polygon fill="#F6953788" points="576 128, 640 192, 576 256" /><polygon fill="#F6953788" points="576 256, 640 320, 576 384" /><polygon fill="#00567A88" points="576 384, 640 448, 576 512" /><polygon fill="#00567A88" points="576 512, 640 576, 576 640" /><polygon fill="#3798F688" points="576 640, 640 704, 576 768" /><polygon fill="#F6953788" points="576 768, 640 832, 576 896" /><polygon fill="#EF7B0B88" points="576 896, 640 960, 576 1024" /><polygon fill="#00567A88" points="576 1024, 640 1088, 576 1152" /><polygon fill="#3798F688" points="576 -64, 512 0, 576 64" /><polygon fill="#00567A88" points="576 64, 512 128, 576 192" /><polygon fill="#F6953788" points="576 192, 512 256, 576 320" /><polygon fill="#3798F688" points="576 320, 512 384, 576 448" /><polygon fill="#EF7B0B88" points="576 448, 512 512, 576 576" /><polygon fill="#F6953788" points="576 576, 512 640, 576 704" /><polygon fill="#00567A88" points="576 704, 512 768, 576 832" /><polygon fill="#00567A88" points="576 832, 512 896, 576 960" /><polygon fill="#EF7B0B88" points="576 960, 512 1024, 576 1088" /><polygon fill="#EF7B0B88" points="640 0, 704 64, 640 128" /><polygon fill="#F6953788" points="640 128, 704 192, 640 256" /><polygon fill="#00567A88" points="640 256, 704 320, 640 384" /><polygon fill="#00567A88" points="640 512, 704 576, 640 640" /><polygon fill="#3798F688" points="640 768, 704 832, 640 896" /><polygon fill="#3798F688" points="640 896, 704 960, 640 1024" /><polygon fill="#EF7B0B88" points="640 -64, 576 0, 640 64" /><polygon fill="#00567A88" points="640 64, 576 128, 640 192" /><polygon fill="#EF7B0B88" points="640 192, 576 256, 640 320" /><polygon fill="#F6953788" points="640 320, 576 384, 640 448" /><polygon fill="#F6953788" points="640 576, 576 640, 640 704" /><polygon fill="#3798F688" points="640 704, 576 768, 640 832" /><polygon fill="#F6953788" points="640 832, 576 896, 640 960" /><polygon fill="#F6953788" points="640 960, 576 1024, 640 1088" /><polygon fill="#00567A88" points="704 0, 768 64, 704 128" /><polygon fill="#3798F688" points="704 128, 768 192, 704 256" /><polygon fill="#F6953788" points="704 256, 768 320, 704 384" /><polygon fill="#3798F688" points="704 384, 768 448, 704 512" /><polygon fill="#00567A88" points="704 512, 768 576, 704 640" /><polygon fill="#EF7B0B88" points="704 640, 768 704, 704 768" /><polygon fill="#3798F688" points="704 768, 768 832, 704 896" /><polygon fill="#F6953788" points="704 896, 768 960, 704 1024" /><polygon fill="#3798F688" points="704 1024, 768 1088, 704 1152" /><polygon fill="#3798F688" points="704 -64, 640 0, 704 64" /><polygon fill="#00567A88" points="704 64, 640 128, 704 192" /><polygon fill="#00567A88" points="704 192, 640 256, 704 320" /><polygon fill="#F6953788" points="704 320, 640 384, 704 448" /><polygon fill="#EF7B0B88" points="704 448, 640 512, 704 576" /><polygon fill="#00567A88" points="704 576, 640 640, 704 704" /><polygon fill="#EF7B0B88" points="704 832, 640 896, 704 960" /><polygon fill="#F6953788" points="704 960, 640 1024, 704 1088" /><polygon fill="#00567A88" points="768 0, 832 64, 768 128" /><polygon fill="#3798F688" points="768 128, 832 192, 768 256" /><polygon fill="#F6953788" points="768 256, 832 320, 768 384" /><polygon fill="#00567A88" points="768 384, 832 448, 768 512" /><polygon fill="#EF7B0B88" points="768 640, 832 704, 768 768" /><polygon fill="#00567A88" points="768 768, 832 832, 768 896" /><polygon fill="#EF7B0B88" points="768 896, 832 960, 768 1024" /><polygon fill="#3798F688" points="768 1024, 832 1088, 768 1152" /><polygon fill="#EF7B0B88" points="768 -64, 704 0, 768 64" /><polygon fill="#EF7B0B88" points="768 64, 704 128, 768 192" /><polygon fill="#EF7B0B88" points="768 192, 704 256, 768 320" /><polygon fill="#3798F688" points="768 320, 704 384, 768 448" /><polygon fill="#00567A88" points="768 448, 704 512, 768 576" /><polygon fill="#EF7B0B88" points="768 576, 704 640, 768 704" /><polygon fill="#00567A88" points="768 704, 704 768, 768 832" /><polygon fill="#00567A88" points="768 832, 704 896, 768 960" /><polygon fill="#00567A88" points="768 960, 704 1024, 768 1088" /><polygon fill="#EF7B0B88" points="832 0, 896 64, 832 128" /><polygon fill="#EF7B0B88" points="832 128, 896 192, 832 256" /><polygon fill="#00567A88" points="832 256, 896 320, 832 384" /><polygon fill="#3798F688" points="832 384, 896 448, 832 512" /><polygon fill="#F6953788" points="832 512, 896 576, 832 640" /><polygon fill="#F6953788" points="832 768, 896 832, 832 896" /><polygon fill="#F6953788" points="832 896, 896 960, 832 1024" /><polygon fill="#3798F688" points="832 1024, 896 1088, 832 1152" /><polygon fill="#3798F688" points="832 -64, 768 0, 832 64" /><polygon fill="#00567A88" points="832 192, 768 256, 832 320" /><polygon fill="#EF7B0B88" points="832 320, 768 384, 832 448" /><polygon fill="#EF7B0B88" points="832 448, 768 512, 832 576" /><polygon fill="#00567A88" points="832 576, 768 640, 832 704" /><polygon fill="#3798F688" points="832 704, 768 768, 832 832" /><polygon fill="#00567A88" points="832 960, 768 1024, 832 1088" /><polygon fill="#3798F688" points="896 128, 960 192, 896 256" /><polygon fill="#F6953788" points="896 256, 960 320, 896 384" /><polygon fill="#3798F688" points="896 384, 960 448, 896 512" /><polygon fill="#EF7B0B88" points="896 512, 960 576, 896 640" /><polygon fill="#EF7B0B88" points="896 640, 960 704, 896 768" /><polygon fill="#F6953788" points="896 768, 960 832, 896 896" /><polygon fill="#EF7B0B88" points="896 896, 960 960, 896 1024" /><polygon fill="#00567A88" points="896 1024, 960 1088, 896 1152" /><polygon fill="#EF7B0B88" points="896 64, 832 128, 896 192" /><polygon fill="#F6953788" points="896 192, 832 256, 896 320" /><polygon fill="#00567A88" points="896 320, 832 384, 896 448" /><polygon fill="#EF7B0B88" points="896 448, 832 512, 896 576" /><polygon fill="#3798F688" points="896 576, 832 640, 896 704" /><polygon fill="#F6953788" points="896 704, 832 768, 896 832" /><polygon fill="#EF7B0B88" points="896 832, 832 896, 896 960" /><polygon fill="#EF7B0B88" points="896 960, 832 1024, 896 1088" /><polygon fill="#EF7B0B88" points="960 0, 1024 64, 960 128" /><polygon fill="#3798F688" points="960 128, 1024 192, 960 256" /><polygon fill="#EF7B0B88" points="960 256, 1024 320, 960 384" /><polygon fill="#F6953788" points="960 384, 1024 448, 960 512" /><polygon fill="#3798F688" points="960 512, 1024 576, 960 640" /><polygon fill="#F6953788" points="960 640, 1024 704, 960 768" /><polygon fill="#EF7B0B88" points="960 768, 1024 832, 960 896" /><polygon fill="#F6953788" points="960 896, 1024 960, 960 1024" /><polygon fill="#3798F688" points="960 1024, 1024 1088, 960 1152" /><polygon fill="#3798F688" points="960 -64, 896 0, 960 64" /><polygon fill="#F6953788" points="960 64, 896 128, 960 192" /><polygon fill="#EF7B0B88" points="960 192, 896 256, 960 320" /><polygon fill="#3798F688" points="960 320, 896 384, 960 448" /><polygon fill="#EF7B0B88" points="960 448, 896 512, 960 576" /><polygon fill="#00567A88" points="960 576, 896 640, 960 704" /><polygon fill="#F6953788" points="960 704, 896 768, 960 832" /><polygon fill="#00567A88" points="960 832, 896 896, 960 960" /><polygon fill="#3798F688" points="960 960, 896 1024, 960 1088" /><polygon fill="#EF7B0B88" points="1024 0, 1088 64, 1024 128" /><polygon fill="#EF7B0B88" points="1024 128, 1088 192, 1024 256" /><polygon fill="#3798F688" points="1024 256, 1088 320, 1024 384" /><polygon fill="#F6953788" points="1024 384, 1088 448, 1024 512" /><polygon fill="#00567A88" points="1024 640, 1088 704, 1024 768" /><polygon fill="#F6953788" points="1024 768, 1088 832, 1024 896" /><polygon fill="#00567A88" points="1024 896, 1088 960, 1024 1024" /><polygon fill="#F6953788" points="1024 1024, 1088 1088, 1024 1152" /><polygon fill="#3798F688" points="1024 -64, 960 0, 1024 64" /><polygon fill="#00567A88" points="1024 64, 960 128, 1024 192" /><polygon fill="#F6953788" points="1024 192, 960 256, 1024 320" /><polygon fill="#F6953788" points="1024 320, 960 384, 1024 448" /><polygon fill="#00567A88" points="1024 448, 960 512, 1024 576" /><polygon fill="#EF7B0B88" points="1024 832, 960 896, 1024 960" /><polygon fill="#3798F688" points="1024 960, 960 1024, 1024 1088" /></svg>
